<?xml version="1.0" encoding="iso-8859-1"?>
<!-- Generator: Adobe Illustrator 16.0.0, SVG Export Plug-In . SVG Version: 6.00 Build 0)  -->
<!DOCTYPE svg PUBLIC "-//W3C//DTD SVG 1.1//EN" "http://www.w3.org/Graphics/SVG/1.1/DTD/svg11.dtd">
<svg version="1.1" id="Capa_1" xmlns="http://www.w3.org/2000/svg" xmlns:xlink="http://www.w3.org/1999/xlink" x="0px" y="0px"
	 width="583.312px" height="583.312px" viewBox="0 0 583.312 583.312" style="enable-background:new 0 0 583.312 583.312;"
	 xml:space="preserve">
<g>
	<g id="Layer_2_49_">
		<path d="M291.656,583.312c76.5,0,114.75-47.812,114.75-105.188s-38.25-66.938-38.25-95.625s9.562-28.688,9.562-47.812
			c0-35.19-32.341-48.75-57.375-54.019v63.791c11.552,8.731,19.125,22.443,19.125,38.03c0,26.402-21.41,47.812-47.812,47.812
			c-26.402,0-47.812-21.41-47.812-47.812c0-15.587,7.574-29.309,19.125-38.03v-63.791c-25.035,5.259-57.375,18.828-57.375,54.019
			c0,19.125,9.562,19.125,9.562,47.812s-38.25,38.25-38.25,95.625S215.156,583.312,291.656,583.312z M253.406,525.938h76.5v19.125
			h-76.5V525.938z"/>
		<rect x="262.969" y="9.562" width="57.375" height="86.062"/>
		<rect x="234.281" width="19.125" height="28.688"/>
		<rect x="234.281" y="38.25" width="19.125" height="28.688"/>
		<rect x="234.281" y="76.5" width="19.125" height="28.688"/>
		<rect x="329.906" width="19.125" height="28.688"/>
		<rect x="329.906" y="38.25" width="19.125" height="28.688"/>
		<rect x="329.906" y="76.5" width="19.125" height="28.688"/>
		<polygon points="272.531,338.723 272.531,353.812 310.781,353.812 310.781,338.723 310.781,278.957 310.781,105.188 
			272.531,105.188 272.531,278.957 		"/>
	</g>
</g>
<g>
</g>
<g>
</g>
<g>
</g>
<g>
</g>
<g>
</g>
<g>
</g>
<g>
</g>
<g>
</g>
<g>
</g>
<g>
</g>
<g>
</g>
<g>
</g>
<g>
</g>
<g>
</g>
<g>
</g>
</svg>
