<svg height="512pt" viewBox="0 0 512 512" width="512pt" xmlns="http://www.w3.org/2000/svg"><path d="m422 50c0-22.089844 17.910156-40 40-40s40 17.910156 40 40z" fill="#ffe6c0"/><path d="m50 50v411.9375h292.097656l-.097656.125v-.0625c0 22.089844 17.910156 40 40 40s40-17.910156 40-40v-452h-332c-22.09375 0-40 17.910156-40 40zm0 0" fill="#fff"/><path d="m382 502h-332c-22.089844 0-40-17.910156-40-40h332c0 22.089844 17.90625 40 40 40zm0 0" fill="#ffe6c0"/><g fill="#ff9357"><path d="m130.851562 168.398438c0 11.046874-8.953124 20-20 20-11.046874 0-20-8.953126-20-20 0-11.046876 8.953126-20 20-20 11.046876 0 20 8.953124 20 20zm0 0"/><path d="m210.851562 143.796875c0 11.042969-8.953124 20-20 20-11.046874 0-20-8.957031-20-20 0-11.046875 8.953126-20 20-20 11.046876 0 20 8.953125 20 20zm0 0"/><path d="m280.84375 296.050781c0 11.042969-8.953125 20-20 20s-20-8.957031-20-20c0-11.046875 8.953125-20 20-20s20 8.953125 20 20zm0 0"/><path d="m360.84375 271.449219c0 11.046875-8.953125 20-20 20s-20-8.953125-20-20 8.953125-20 20-20 20 8.953125 20 20zm0 0"/><path d="m150.851562 395.550781c0 11.042969-8.953124 20-20 20-11.046874 0-20-8.957031-20-20 0-11.046875 8.953126-20 20-20 11.046876 0 20 8.953125 20 20zm0 0"/></g><path d="m462 0h-372.0625c-27.570312 0-50 22.429688-50 50v402h-29.9375c-5.523438 0-10 4.476562-10 10 0 27.570312 22.429688 50 50 50h335.730469c1.054687 0 2.070312-.164062 3.027343-.46875 24.382813-3.308594 43.242188-24.253906 43.242188-49.53125v-145.949219c0-5.523437-4.476562-10-10-10s-10 4.476563-10 10v145.949219c0 16.542969-13.457031 30-30 30s-30-13.457031-30-30c0-5.523438-4.476562-10-10-10h-282.0625v-402c0-16.542969 13.457031-30 30-30h332.089844c-6.292969 8.363281-10.027344 18.753906-10.027344 30v186.050781c0 5.523438 4.476562 10 10 10s10-4.476562 10-10v-176.050781h70c5.523438 0 10-4.476562 10-10 0-27.570312-22.429688-50-50-50zm-412 492c-13.035156 0-24.152344-8.359375-28.28125-20h311.289062c1.503907 7.386719 4.640626 14.183594 9.019532 20zm383.714844-452c4.125-11.640625 15.246094-20 28.285156-20s24.160156 8.359375 28.285156 20zm0 0"/><path d="m360.84375 405.550781h-134.996094c-5.523437 0-10 4.476563-10 10 0 5.523438 4.476563 10 10 10h134.996094c5.523438 0 10-4.476562 10-10 0-5.523437-4.476562-10-10-10zm0 0"/><path d="m360.84375 357.550781h-134.996094c-5.523437 0-10 4.476563-10 10 0 5.523438 4.476563 10 10 10h134.996094c5.523438 0 10-4.476562 10-10 0-5.523437-4.476562-10-10-10zm0 0"/><path d="m214 271.550781c0-5.523437-4.476562-10-10-10h-105c-5.523438 0-10 4.476563-10 10 0 5.523438 4.476562 10 10 10h105c5.523438 0 10-4.476562 10-10zm0 0"/><path d="m204 213.550781h-105c-5.523438 0-10 4.476563-10 10 0 5.523438 4.476562 10 10 10h105c5.523438 0 10-4.476562 10-10 0-5.523437-4.476562-10-10-10zm0 0"/><path d="m360.84375 118h-104.714844c-5.523437 0-10 4.476562-10 10s4.476563 10 10 10h104.714844c5.523438 0 10-4.476562 10-10s-4.476562-10-10-10zm0 0"/><path d="m360.84375 70h-104.714844c-5.523437 0-10 4.476562-10 10s4.476563 10 10 10h104.714844c5.523438 0 10-4.476562 10-10s-4.476562-10-10-10zm0 0"/><path d="m220.851562 64.296875c0-3.175781-1.503906-6.160156-4.058593-8.042969-2.550781-1.886718-5.847657-2.449218-8.878907-1.515625l-80 24.601563c-4.199218 1.292968-7.0625 5.167968-7.0625 9.558594v51.21875c-3.128906-1.109376-6.492187-1.71875-10-1.71875-16.542968 0-30 13.457031-30 30 0 16.542968 13.457032 30 30 30 16.542969 0 30-13.457032 30-30v-72.113282l60-18.453125v37.683594c-3.128906-1.109375-6.492187-1.71875-10-1.71875-16.542968 0-30 13.457031-30 30s13.457032 30 30 30c16.542969 0 30-13.457031 30-30zm-110 114.101563c-5.511718 0-10-4.488282-10-10 0-5.515626 4.488282-10 10-10 5.515626 0 10 4.484374 10 10 0 5.511718-4.484374 10-10 10zm80-24.601563c-5.511718 0-10-4.488281-10-10 0-5.515625 4.488282-10 10-10 5.515626 0 10 4.484375 10 10 0 5.511719-4.484374 10-10 10zm0 0"/><path d="m370.84375 191.949219c0-3.171875-1.503906-6.160157-4.058594-8.042969-2.550781-1.886719-5.847656-2.449219-8.878906-1.515625l-80 24.601563c-4.199219 1.292968-7.0625 5.167968-7.0625 9.558593v51.222657c-3.128906-1.113282-6.492188-1.722657-10-1.722657-16.542969 0-30 13.460938-30 30 0 16.542969 13.457031 30 30 30s30-13.457031 30-30v-72.113281l60-18.449219v37.679688c-3.128906-1.109375-6.492188-1.71875-10-1.71875-16.542969 0-30 13.457031-30 30s13.457031 30 30 30 30-13.457031 30-30zm-110 114.101562c-5.515625 0-10-4.484375-10-10s4.484375-10 10-10 10 4.484375 10 10-4.484375 10-10 10zm80-24.601562c-5.515625 0-10-4.488281-10-10 0-5.515625 4.484375-10 10-10s10 4.484375 10 10c0 5.511719-4.484375 10-10 10zm0 0"/><path d="m169.816406 313.8125-15.8125-5.25c-3.050781-1.015625-6.398437-.5-9.003906 1.378906s-4.148438 4.898438-4.148438 8.109375v49.21875c-3.128906-1.109375-6.496093-1.71875-10-1.71875-16.542968 0-30 13.457031-30 30s13.457032 30 30 30c16.542969 0 30-13.457031 30-30v-63.644531l2.664063.882812c8.019531 2.664063 14.003906 9.160157 16 17.375 1.308594 5.367188 6.714844 8.660157 12.082031 7.355469 5.367188-1.308593 8.660156-6.714843 7.351563-12.082031-3.636719-14.957031-14.527344-26.777344-29.132813-31.625zm-38.964844 91.738281c-5.511718 0-10-4.484375-10-10s4.488282-10 10-10c5.515626 0 10 4.484375 10 10s-4.484374 10-10 10zm0 0"/><path d="m422 266.050781c-2.628906 0-5.210938 1.070313-7.070312 2.929688-1.859376 1.859375-2.929688 4.441406-2.929688 7.070312 0 2.628907 1.070312 5.210938 2.929688 7.070313 1.859374 1.859375 4.441406 2.929687 7.070312 2.929687s5.210938-1.070312 7.070312-2.929687c1.859376-1.859375 2.929688-4.441406 2.929688-7.070313 0-2.628906-1.070312-5.210937-2.929688-7.070312-1.859374-1.859375-4.441406-2.929688-7.070312-2.929688zm0 0"/></svg>