<svg height="512pt" viewBox="0 0 512 512" width="512pt" xmlns="http://www.w3.org/2000/svg"><path d="m7.574219 7.574219h496.851562v343.351562h-496.851562zm0 0" fill="#c8d2dc"/><path d="m487.257812 7.574219v316.085937c0 5.578125-4.519531 10.101563-10.097656 10.101563h-469.585937v17.167969h496.851562v-343.355469zm0 0" fill="#b9c3cd"/><path d="m41.910156 41.910156h428.179688v274.679688h-428.179688zm0 0" fill="#81b8fd"/><path d="m448.882812 41.910156v243.375c0 5.578125-4.519531 10.101563-10.097656 10.101563h-396.875v21.207031h428.179688v-274.683594zm0 0" fill="#62a6fd"/><path d="m292.355469 176.726562c0 11.152344-9.042969 20.195313-20.199219 20.195313-11.152344 0-20.195312-9.042969-20.195312-20.195313 0-11.15625 9.042968-20.199218 20.195312-20.199218 11.15625 0 20.199219 9.042968 20.199219 20.199218zm0 0" fill="#ffe046"/><path d="m369.105469 157.539062c0 11.152344-9.042969 20.195313-20.199219 20.195313-11.152344 0-20.195312-9.042969-20.195312-20.195313 0-11.15625 9.042968-20.199218 20.195312-20.199218 11.15625 0 20.199219 9.042968 20.199219 20.199218zm0 0" fill="#ffe046"/><path d="m188.339844 222.152344c0 32.621094-26.441406 59.0625-59.0625 59.0625-32.617188 0-59.058594-26.441406-59.058594-59.0625 0-32.617188 26.441406-59.058594 59.058594-59.058594 32.621094 0 59.0625 26.441406 59.0625 59.058594zm0 0" fill="#495959"/><path d="m129.277344 163.09375c-3.179688 0-6.300782.257812-9.347656.742188 28.175781 4.484374 49.710937 28.882812 49.710937 58.316406 0 29.4375-21.535156 53.835937-49.710937 58.320312 3.046874.484375 6.167968.742188 9.347656.742188 32.621094 0 59.0625-26.441406 59.0625-59.0625 0-32.617188-26.441406-59.058594-59.0625-59.058594zm0 0" fill="#3f4a4a"/><path d="m161.59375 312.550781-13.164062 159.558594h-38.300782l-13.164062-159.558594zm0 0" fill="#495959"/><path d="m142.894531 312.550781-13.164062 159.558594h18.699219l13.164062-159.558594zm0 0" fill="#3f4a4a"/><path d="m157.75 312.550781h-56.941406c-5.578125 0-10.101563-4.519531-10.101563-10.097656v-21.988281c0-5.578125 4.523438-10.101563 10.101563-10.101563h56.941406c5.578125 0 10.097656 4.523438 10.097656 10.101563v21.988281c0 5.578125-4.519531 10.097656-10.097656 10.097656zm0 0" fill="#c8d2dc"/><path d="m157.75 270.367188h-18.699219c5.578125 0 10.097657 4.519531 10.097657 10.097656v21.988281c0 5.578125-4.519532 10.101563-10.097657 10.101563h18.699219c5.578125 0 10.097656-4.523438 10.097656-10.101563v-21.988281c0-5.578125-4.519531-10.097656-10.097656-10.097656zm0 0" fill="#b9c3cd"/><path d="m504.425781 92.65625c4.183594 0 7.574219-3.390625 7.574219-7.574219v-77.507812c0-4.183594-3.390625-7.574219-7.574219-7.574219h-496.851562c-4.183594 0-7.574219 3.390625-7.574219 7.574219v343.351562c0 4.183594 3.390625 7.574219 7.574219 7.574219h85.582031l.871094 10.554688c.34375 4.167968 3.996094 7.265624 8.167968 6.925781 4.171876-.34375 7.273438-4.003907 6.925782-8.171875l-3.933594-47.683594h48.183594l-8.917969 108.054688h-30.347656l-2.066407-25.027344c-.34375-4.171875-4.007812-7.285156-8.171874-6.925782-4.167969.34375-7.269532 4-6.925782 8.171876l1.964844 23.785156c-4.148438.042968-7.496094 3.414062-7.496094 7.570312 0 4.183594 3.390625 7.574219 7.574219 7.574219h1.167969l2.425781 29.40625c.324219 3.925781 3.609375 6.949219 7.550781 6.949219h11.574219v24.742187c0 4.183594 3.390625 7.574219 7.574219 7.574219s7.574218-3.390625 7.574218-7.574219v-24.742187h11.578126c3.9375 0 7.222656-3.023438 7.546874-6.949219l2.425782-29.40625h1.171875c4.183593 0 7.574219-3.390625 7.574219-7.574219 0-4.15625-3.351563-7.527344-7.496094-7.570312l5.75-69.683594h339.023437c4.179688 0 7.570313-3.390625 7.570313-7.574219v-230.5c0-4.183593-3.390625-7.574219-7.570313-7.574219-4.183593 0-7.574219 3.390626-7.574219 7.574219v222.925781h-330.203124l1.585937-19.1875h301.855469c4.179687 0 7.570312-3.390624 7.570312-7.570312v-274.683594c0-4.183594-3.390625-7.574218-7.570312-7.574218h-428.179688c-4.183594 0-7.574218 3.390624-7.574218 7.574218v32.863282c0 4.179687 3.390624 7.574218 7.574218 7.574218s7.574219-3.394531 7.574219-7.574218v-25.289063h413.03125v259.535156h-288.371094c.816407-2.035156 1.277344-4.246093 1.277344-6.566406v-21.988281c0-3.007813-.757813-5.835938-2.085937-8.320313 14.269531-12.5625 22.578124-30.675781 22.578124-49.996093 0-36.738282-29.890624-66.628907-66.632812-66.628907-36.746094 0-66.640625 29.890625-66.640625 66.628907 0 19.3125 8.308594 37.425781 22.585937 49.992187-1.332031 2.480469-2.089843 5.316406-2.089843 8.324219v21.988281c0 2.320313.460937 4.53125 1.277343 6.5625h-34.929687v-198.816406c0-4.179688-3.390625-7.570313-7.574219-7.570313s-7.574218 3.390625-7.574218 7.570313v206.394531c0 4.179688 3.390624 7.570312 7.574218 7.570312h48.410156l1.582032 19.1875h-76.753906v-328.203124h481.703124v69.933593c0 4.183594 3.390626 7.574219 7.574219 7.574219zm-403.617187 212.320312c-1.394532 0-2.527344-1.128906-2.527344-2.523437v-21.988281c0-1.371094 1.15625-2.527344 2.527344-2.527344h56.941406c1.390625 0 2.523438 1.132812 2.523438 2.527344v21.988281c0 1.394531-1.132813 2.523437-2.523438 2.523437zm40.644531 159.558594h-24.347656l-1.75-21.207031h27.847656zm-63.664063-242.386718c0-28.386719 23.101563-51.480469 51.492188-51.480469s51.484375 23.09375 51.484375 51.480469c0 16.125-7.492187 31.167968-20.195313 40.890624-.921874-.148437-1.859374-.246093-2.820312-.246093h-56.941406c-.960938 0-1.898438.097656-2.816406.246093-12.707032-9.726562-20.203126-24.769531-20.203126-40.890624zm0 0"/><path d="m208.03125 241.863281c0 4.183594 3.390625 7.574219 7.574219 7.574219h40.394531c4.183594 0 7.574219-3.390625 7.574219-7.574219 0-4.183593-3.390625-7.574219-7.574219-7.574219h-40.394531c-4.183594 0-7.574219 3.390626-7.574219 7.574219zm0 0"/><path d="m187.835938 278.21875c0 4.179688 3.390624 7.570312 7.570312 7.570312h129.265625c4.179687 0 7.570313-3.390624 7.570313-7.570312 0-4.183594-3.390626-7.574219-7.570313-7.574219h-129.265625c-4.179688 0-7.570312 3.390625-7.570312 7.574219zm0 0"/><path d="m295.386719 234.289062c-4.183594 0-7.574219 3.390626-7.574219 7.574219 0 4.183594 3.390625 7.574219 7.574219 7.574219h30.292969c4.183593 0 7.574218-3.390625 7.574218-7.574219 0-4.183593-3.390625-7.574219-7.574218-7.574219zm0 0"/><path d="m415.558594 234.289062h-50.492188c-4.183594 0-7.574218 3.390626-7.574218 7.574219 0 4.183594 3.390624 7.574219 7.574218 7.574219h50.492188c4.183594 0 7.574218-3.390625 7.574218-7.574219 0-4.183593-3.390624-7.574219-7.574218-7.574219zm0 0"/><path d="m415.558594 270.644531h-61.601563c-4.183593 0-7.574219 3.390625-7.574219 7.574219 0 4.179688 3.390626 7.570312 7.574219 7.570312h61.601563c4.183594 0 7.574218-3.390624 7.574218-7.570312 0-4.183594-3.390624-7.574219-7.574218-7.574219zm0 0"/><path d="m373.765625 64.214844c-1.839844-1.433594-4.234375-1.945313-6.496094-1.378906l-76.75 19.1875c-3.375.84375-5.738281 3.875-5.738281 7.347656v62.628906c-3.789062-1.941406-8.078125-3.046875-12.625-3.046875-15.3125 0-27.769531 12.460937-27.769531 27.773437 0 15.308594 12.457031 27.769532 27.769531 27.769532 15.316406 0 27.773438-12.460938 27.773438-27.769532v-81.441406l61.601562-15.398437v52.925781c-3.789062-1.941406-8.078125-3.046875-12.625-3.046875-15.3125 0-27.769531 12.460937-27.769531 27.773437s12.457031 27.769532 27.769531 27.769532c15.316406 0 27.773438-12.457032 27.773438-27.769532v-87.355468c0-2.332032-1.074219-4.53125-2.914063-5.96875zm-101.609375 125.132812c-6.960938 0-12.621094-5.660156-12.621094-12.621094 0-6.960937 5.664063-12.625 12.621094-12.625 6.960938 0 12.625 5.664063 12.625 12.625 0 6.960938-5.664062 12.621094-12.625 12.621094zm76.75-19.1875c-6.960938 0-12.621094-5.660156-12.621094-12.621094 0-6.960937 5.660156-12.625 12.621094-12.625s12.625 5.664063 12.625 12.625c0 6.960938-5.664062 12.621094-12.625 12.621094zm0 0"/><path d="m136.851562 375.164062v-30.296874c0-4.183594-3.390624-7.574219-7.574218-7.574219-4.179688 0-7.574219 3.390625-7.574219 7.574219v30.296874c0 4.183594 3.394531 7.574219 7.574219 7.574219 4.183594 0 7.574218-3.390625 7.574218-7.574219zm0 0"/></svg>