<svg height="512pt" viewBox="0 0 512 512" width="512pt" xmlns="http://www.w3.org/2000/svg"><path d="m361 452c0 16.539062-13.460938 30-30 30h-60c-16.539062 0-30-13.460938-30-30h28.242188l24.628906-197.992188c-20.476563 10.5-43.324219 16.992188-67.871094 16.992188s-47.394531-6.492188-67.871094-16.992188l24.628906 197.992188h28.242188c0 33.089844 26.910156 60 60 60h60c33.089844 0 60-26.910156 60-60 0-16.539062 14.460938-30 31-30h90v-30h-90c-33.089844 0-61 26.910156-61 60zm0 0"/><path d="m60 424.578125c-4.695312-1.664063-9.742188-2.578125-15-2.578125-24.8125 0-45 20.1875-45 45s20.1875 45 45 45 45-20.1875 45-45v-96.730469l38.292969 19.148438 13.414062-26.832031-81.707031-40.855469zm0 0"/><path d="m422 141.730469v101.847656c-4.695312-1.664063-9.742188-2.578125-15-2.578125-24.8125 0-45 20.1875-45 45s20.1875 45 45 45 45-20.1875 45-45v-95.730469l38.292969 19.148438 13.414062-26.832031zm0 0"/><path d="m226 0c-55.746094 0-102.320312 39.390625-115.738281 91h231.476562c-13.417969-51.609375-59.992187-91-115.738281-91zm0 0"/><path d="m226 241c55.746094 0 102.320312-38.390625 115.738281-90h19.261719v-30h-270v30h19.261719c13.417969 51.609375 59.992187 90 115.738281 90zm0 0"/></svg>