<svg height="512pt" viewBox="0 0 512 512" width="512pt" xmlns="http://www.w3.org/2000/svg"><path d="m511 391.234375v29.941406h-89.824219c-16.464843 0-30.9375 13.476563-30.9375 29.941407 0 32.9375-26.949219 59.882812-59.882812 59.882812h-59.882813c-17.964844 0-34.132812-8.082031-44.914062-20.65625-9.582032-10.480469-14.96875-24.253906-14.96875-39.226562v-14.96875h29.941406v14.96875c0 16.46875 13.472656 29.941406 29.941406 29.941406h59.882813c16.46875 0 29.941406-13.472656 29.941406-29.941406 0-32.933594 27.945313-59.882813 60.878906-59.882813zm0 0" fill="#b4d2d7"/><path d="m511 391.234375v29.941406h-89.824219c-16.464843 0-30.9375 13.476563-30.9375 29.941407 0 32.9375-26.949219 59.882812-59.882812 59.882812h-59.882813c-17.964844 0-34.132812-8.082031-44.914062-20.65625v-54.195312h14.972656v14.96875c0 16.46875 13.472656 29.941406 29.941406 29.941406h59.882813c16.46875 0 29.941406-13.472656 29.941406-29.941406 0-32.933594 27.945313-59.882813 60.878906-59.882813zm0 0" fill="#87a0af"/><path d="m298.917969 209.6875-30.242188 241.429688h-86.230469l-30.242187-241.429688zm0 0" fill="#697c86"/><path d="m225.558594 209.6875h73.359375l-30.242188 241.429688h-43.117187zm0 0" fill="#465a61"/><path d="m225.558594 0c-66.171875 0-120.761719 54.59375-120.761719 120.765625s54.589844 119.765625 120.761719 119.765625 119.765625-53.59375 119.765625-119.765625-53.59375-120.765625-119.765625-120.765625zm0 0" fill="#e1ebf0"/><path d="m225.558594 240.53125v-240.53125c66.171875 0 119.765625 54.59375 119.765625 120.765625s-53.59375 119.765625-119.765625 119.765625zm0 0" fill="#b4d2d7"/><path d="m502.617188 182.144531-13.171876 26.945313-38.328124-19.160156v95.511718h-29.941407v-144.019531zm0 0" fill="#7ed6f4"/><path d="m59.882812 321.074219v145.015625h29.941407v-96.511719l38.328125 19.164063 13.171875-26.949219zm0 0" fill="#7ed6f4"/><path d="m89.824219 120.765625h270.472656v29.941406h-270.472656zm0 0" fill="#b4d2d7"/><path d="m406.207031 240.53125c-24.851562 0-44.914062 20.058594-44.914062 44.910156 0 24.855469 20.0625 44.914063 44.914062 44.914063 24.851563 0 44.910157-20.058594 44.910157-44.914063 0-24.851562-20.058594-44.910156-44.910157-44.910156zm0 0" fill="#99f9ff"/><path d="m44.914062 421.175781c-24.855468 0-44.914062 20.285157-44.914062 45.414063 0 25.125 20.058594 45.410156 44.914062 45.410156 24.851563 0 44.910157-20.285156 44.910157-45.410156 0-25.128906-20.058594-45.414063-44.910157-45.414063zm0 0" fill="#99f9ff"/><path d="m89.824219 466.589844c0 25.125-20.058594 45.410156-44.910157 45.410156v-90.824219c24.851563 0 44.910157 20.285157 44.910157 45.414063zm0 0" fill="#7ed6f4"/><path d="m451.117188 285.441406c0 24.855469-20.058594 44.914063-44.910157 44.914063v-89.824219c24.851563 0 44.910157 20.058594 44.910157 44.910156zm0 0" fill="#7ed6f4"/><path d="m225.558594 120.765625h134.738281v29.941406h-134.738281zm0 0" fill="#87a0af"/></svg>