<svg height="437pt" viewBox="-70 0 437 437.99728" width="437pt" xmlns="http://www.w3.org/2000/svg"><path d="m12.5 216.566406c0-3.3125-2.6875-6-6-6-3.316406 0-6 2.6875-6 6 .0625 50.386719 39.214844 92.082032 89.5 95.304688v114.125h-56.964844c-3.316406 0-6 2.6875-6 6 0 3.316406 2.683594 6 6 6h125.929688c3.3125 0 6-2.683594 6-6 0-3.3125-2.6875-6-6-6h-56.964844v-114.125c50.28125-3.222656 89.433594-44.914063 89.5-95.296875 0-3.316407-2.6875-6-6-6-3.316406 0-6 2.683593-6 6 0 46.113281-37.386719 83.5-83.5 83.5-46.117188 0-83.5-37.386719-83.5-83.5zm0 0"/><path d="m50.855469 216.566406c0 24.933594 20.210937 45.144532 45.144531 45.144532 24.929688 0 45.140625-20.210938 45.140625-45.144532v-33.03125h-90.285156zm0 0"/><path d="m141.140625 63.140625c0-24.933594-20.210937-45.144531-45.140625-45.144531-24.933594 0-45.144531 20.210937-45.144531 45.144531v108.394531h90.285156zm-64.320313 76.457031c-5.433593 0-9.835937-4.402344-9.835937-9.835937 0-5.433594 4.402344-9.835938 9.835937-9.835938 5.429688 0 9.835938 4.402344 9.835938 9.835938-.007812 5.429687-4.40625 9.828125-9.835938 9.835937zm0-51.140625c-5.433593 0-9.835937-4.40625-9.835937-9.835937 0-5.433594 4.402344-9.835938 9.835937-9.835938 5.429688-.003906 9.835938 4.402344 9.835938 9.835938-.007812 5.425781-4.40625 9.824218-9.835938 9.832031zm38.355469 51.140625c-5.429687 0-9.835937-4.402344-9.835937-9.835937 0-5.433594 4.40625-9.835938 9.835937-9.835938 5.433594 0 9.835938 4.402344 9.835938 9.835938-.003907 5.429687-4.40625 9.828125-9.835938 9.835937zm0-51.140625c-5.429687 0-9.835937-4.40625-9.835937-9.835937 0-5.433594 4.40625-9.835938 9.835937-9.835938 5.433594 0 9.835938 4.402344 9.835938 9.835938-.007813 5.425781-4.40625 9.824218-9.835938 9.832031zm0 0"/><path d="m221.953125 23.296875v50.601563c-8.339844-3.921876-18.261719-1.898438-24.402344 4.96875-6.144531 6.871093-7.042969 16.957031-2.21875 24.808593 4.824219 7.851563 14.234375 11.601563 23.136719 9.222657 8.902344-2.378907 15.1875-10.320313 15.453125-19.53125.023437-.207032.03125-.410157.03125-.617188v-43.277344l51.910156-10.515625v53.679688c-8.410156-3.867188-18.359375-1.722657-24.429687 5.261719-6.070313 6.984374-6.808594 17.132812-1.8125 24.921874 4.996094 7.789063 14.53125 11.351563 23.410156 8.742188 8.878906-2.605469 14.972656-10.753906 14.96875-20.007812-.003906-.773438-.050781-1.546876-.136719-2.3125v-95.921876c0-3.996093-1.792969-7.78125-4.886719-10.3125-3.09375-2.527343-7.160156-3.535156-11.078124-2.742187l-49.269532 9.980469c-6.199218 1.269531-10.65625 6.722656-10.675781 13.050781zm0 0"/></svg>