<svg height="437pt" viewBox="-70 0 437 437.99536" width="437pt" xmlns="http://www.w3.org/2000/svg"><path d="m291.859375 109.546875c.832031 6.132813-2.226563 12.144531-7.675781 15.078125-5.453125 2.9375-12.152344 2.183594-16.816406-1.890625-4.660157-4.074219-6.308594-10.613281-4.132813-16.40625 2.179687-5.796875 7.722656-9.636719 13.914063-9.632813 7.425781.007813 13.707031 5.492188 14.710937 12.851563zm0 0" fill="#6fe3ff"/><path d="m291.859375 13.316406v18.300782l-63.902344 12.949218v-21.269531c0-3.480469 2.449219-6.480469 5.859375-7.171875l49.269532-9.980469c2.152343-.4375 4.386718.117188 6.085937 1.507813 1.699219 1.386718 2.6875 3.46875 2.6875 5.664062zm0 0" fill="#6fe3ff"/><path d="m213.097656 77.894531c8.207032 0 14.859375 6.648438 14.859375 14.855469 0 8.203125-6.652343 14.855469-14.855469 14.855469-8.207031 0-14.855468-6.65625-14.855468-14.859375.003906-8.203125 6.652344-14.847656 14.851562-14.851563zm0 0" fill="#6fe3ff"/><path d="m147.136719 177.535156v39.03125c0 28.242188-22.894531 51.140625-51.140625 51.140625-28.242188 0-51.136719-22.898437-51.136719-51.140625v-39.03125zm0 0" fill="#f8ec7d"/><path d="m147.136719 63.136719v114.398437h-102.277344v-114.398437c0-28.246094 22.894531-51.140625 51.136719-51.140625 28.246094 0 51.140625 22.894531 51.140625 51.140625zm-28.128907 15.480469c-.003906-2.121094-1.722656-3.835938-3.839843-3.832032-2.117188.003906-3.832031 1.722656-3.832031 3.839844.003906 2.117188 1.722656 3.832031 3.839843 3.832031 1.019531-.003906 1.996094-.40625 2.714844-1.128906.714844-.71875 1.121094-1.695313 1.117187-2.710937zm0 51.136718c-.003906-2.117187-1.722656-3.832031-3.839843-3.828125-2.117188.003907-3.832031 1.722657-3.832031 3.839844.003906 2.117187 1.722656 3.832031 3.839843 3.828125 1.019531.003906 1.996094-.402344 2.714844-1.121094.71875-.722656 1.121094-1.699218 1.117187-2.71875zm-38.351562-51.136718c0-2.117188-1.71875-3.832032-3.835938-3.832032-2.117187 0-3.832031 1.71875-3.832031 3.832032 0 2.117187 1.710938 3.835937 3.828125 3.839843 2.121094-.003906 3.839844-1.722656 3.839844-3.839843zm0 51.136718c0-2.117187-1.71875-3.828125-3.835938-3.828125-2.117187 0-3.832031 1.714844-3.832031 3.832031 0 2.117188 1.710938 3.835938 3.828125 3.835938 1.019532.003906 2-.398438 2.71875-1.121094.722656-.71875 1.125-1.699218 1.121094-2.71875zm0 0" fill="#e48e66"/><g fill="#63316d"><path d="m6.496094 210.566406c-3.3125 0-6 2.683594-6 6 .0625 50.386719 39.214844 92.082032 89.5 95.304688v114.125h-56.96875c-3.3125 0-6 2.6875-6 6s2.6875 6 6 6h125.941406c3.3125 0 6-2.6875 6-6s-2.6875-6-6-6h-56.972656v-114.125c50.285156-3.222656 89.441406-44.917969 89.5-95.304688 0-3.316406-2.683594-6-6-6-3.3125 0-6 2.683594-6 6 0 46.113282-37.382813 83.5-83.5 83.5-46.113282 0-83.5-37.386718-83.5-83.5 0-3.316406-2.683594-6-6-6zm0 0"/><path d="m136.398438 22.734375c-16.339844-16.34375-40.917969-21.234375-62.269532-12.390625-21.355468 8.84375-35.277344 29.679688-35.277344 52.792969v108.398437h-14c-3.3125 0-6 2.6875-6 6s2.6875 6 6 6h14v33.03125c0 31.554688 25.582032 57.140625 57.140626 57.140625 31.558593 0 57.140624-25.585937 57.140624-57.140625v-33.03125h14c3.3125 0 6-2.6875 6-6s-2.6875-6-6-6h-14v-108.398437c.039063-15.164063-5.984374-29.710938-16.734374-40.402344zm-85.539063 40.402344c0-24.929688 20.207031-45.140625 45.136719-45.140625 24.933594 0 45.140625 20.210937 45.140625 45.140625v108.398437h-90.277344zm90.277344 153.429687c0 24.929688-20.207031 45.140625-45.140625 45.140625-24.929688 0-45.136719-20.210937-45.136719-45.140625v-33.03125h90.277344zm0 0"/><path d="m76.816406 68.773438c-5.433594 0-9.839844 4.40625-9.839844 9.84375 0 5.433593 4.40625 9.839843 9.839844 9.839843 5.4375 0 9.839844-4.40625 9.839844-9.839843 0-5.433594-4.40625-9.839844-9.839844-9.84375zm0 12c-1.191406-.003907-2.152344-.972657-2.148437-2.164063.003906-1.191406.972656-2.15625 2.164062-2.152344 1.191407 0 2.15625.964844 2.15625 2.160157 0 .574218-.230469 1.125-.636719 1.527343-.40625.40625-.960937.632813-1.535156.628907zm0 0"/><path d="m115.175781 68.773438c-5.433593-.003907-9.84375 4.398437-9.847656 9.835937-.003906 5.433594 4.402344 9.84375 9.835937 9.847656 5.4375 0 9.84375-4.40625 9.84375-9.839843-.007812-5.429688-4.402343-9.832032-9.832031-9.84375zm0 12c-1.191406 0-2.15625-.964844-2.15625-2.15625 0-1.195313.964844-2.160157 2.15625-2.160157 1.195313 0 2.160157.964844 2.160157 2.160157-.003907 1.191406-.96875 2.15625-2.160157 2.15625zm0 0"/><path d="m76.816406 119.925781c-5.429687.003907-9.832031 4.40625-9.828125 9.839844.003907 5.429687 4.40625 9.832031 9.839844 9.828125 5.429687 0 9.832031-4.40625 9.828125-9.839844-.003906-5.429687-4.410156-9.828125-9.839844-9.828125zm0 12c-1.191406-.003906-2.160156-.972656-2.160156-2.167969.003906-1.195312.96875-2.160156 2.164062-2.164062 1.195313 0 2.164063.96875 2.167969 2.160156 0 .578125-.226562 1.128906-.636719 1.535156-.40625.410157-.957031.636719-1.535156.636719zm0 0"/><path d="m115.175781 119.925781c-5.429687-.003906-9.835937 4.398438-9.839843 9.832031 0 5.433594 4.40625 9.839844 9.839843 9.835938 5.429688 0 9.835938-4.40625 9.832031-9.839844-.007812-5.425781-4.40625-9.820312-9.832031-9.828125zm0 12c-1.195312.003907-2.164062-.964843-2.167969-2.160156-.003906-1.195313.964844-2.167969 2.160157-2.171875 1.195312 0 2.167969.964844 2.167969 2.160156 0 1.195313-.964844 2.164063-2.160157 2.171875zm0 0"/><path d="m281.898438.265625-49.269532 9.980469c-6.203125 1.269531-10.65625 6.71875-10.671875 13.050781v50.597656c-8.339843-3.917969-18.265625-1.898437-24.40625 4.972657-6.140625 6.871093-7.042969 16.960937-2.214843 24.8125 4.828124 7.847656 14.238281 11.597656 23.140624 9.214843 8.902344-2.378906 15.1875-10.324219 15.449219-19.539062.019531-.199219.03125-.40625.03125-.613281v-43.269532l51.902344-10.519531v53.679687c-2.730469-1.273437-5.703125-1.933593-8.710937-1.9375-8.726563-.058593-16.582032 5.285157-19.726563 13.421876-3.148437 8.140624-.933594 17.378906 5.566406 23.203124 6.496094 5.828126 15.917969 7.027344 23.667969 3.011719 7.75-4.011719 12.210938-12.398437 11.203125-21.066406v-95.949219c0-3.996094-1.796875-7.78125-4.886719-10.308594-3.09375-2.53125-7.160156-3.535156-11.074218-2.742187zm-68.800782 101.339844c-4.890625-.003907-8.851562-3.96875-8.851562-8.855469.003906-4.890625 3.964844-8.855469 8.855468-8.855469 4.886719 0 8.851563 3.960938 8.855469 8.851563-.003906 4.890625-3.96875 8.855468-8.859375 8.859375zm64.050782 18.800781c-4.699219.007812-8.585938-3.652344-8.859376-8.34375-.269531-4.691406 3.167969-8.777344 7.835938-9.308594 4.667969-.535156 8.941406 2.671875 9.734375 7.300782v1.21875c0 .359374.035156.71875.097656 1.070312-.410156 4.558594-4.230469 8.054688-8.808593 8.0625zm8.710937-107.089844v13.394532l-51.902344 10.515624v-13.929687c0-.625.441407-1.164063 1.050781-1.292969l49.269532-9.980468c.386718-.078126.789062.023437 1.097656.273437.304688.25.484375.625.484375 1.019531zm0 0"/></g></svg>