<?xml version="1.0" encoding="iso-8859-1"?>
<!-- Generator: Adobe Illustrator 19.0.0, SVG Export Plug-In . SVG Version: 6.00 Build 0)  -->
<svg version="1.1" id="Layer_1" xmlns="http://www.w3.org/2000/svg" xmlns:xlink="http://www.w3.org/1999/xlink" x="0px" y="0px"
	 viewBox="0 0 438.647 438.647" style="enable-background:new 0 0 438.647 438.647;" xml:space="preserve">
<g>
	<g>
		<g>
			<path d="M163.919,22.927c-77.744,0-140.993,63.25-140.993,140.994s63.25,140.993,140.993,140.993
				c77.744,0,140.993-63.25,140.993-140.993C304.912,86.177,241.663,22.927,163.919,22.927z M163.919,289.914
				c-69.473,0-125.993-56.521-125.993-125.993c0-69.473,56.521-125.994,125.993-125.994s125.993,56.521,125.993,125.994
				S233.391,289.914,163.919,289.914z"/>
			<path d="M428.118,377.209l-88.089-88.088c-6.8-6.799-15.839-10.544-25.455-10.544c-3.189,0-6.312,0.421-9.314,1.219
				l-13.346-13.346c23.274-28.965,35.926-64.754,35.926-102.531c0-43.852-17.033-85.034-47.96-115.96
				C248.952,17.033,207.77,0,163.919,0C120.07,0,78.883,17.034,47.958,47.959c-63.941,63.941-63.942,167.981,0,231.922
				c31.97,31.971,73.965,47.956,115.96,47.956c36.344,0,72.682-11.982,102.528-35.927l13.349,13.349
				c-0.799,3.003-1.22,6.127-1.22,9.318c0,9.615,3.745,18.656,10.544,25.455l88.089,88.088c7.018,7.018,16.236,10.527,25.454,10.527
				c9.219,0,18.438-3.509,25.455-10.527c0.001,0,0.001,0,0.001,0C442.153,414.083,442.153,391.245,428.118,377.209z
				 M163.919,312.843c-38.15-0.002-76.312-14.525-105.355-43.568c-58.093-58.093-58.092-152.617,0-210.709
				C86.658,30.472,124.074,15,163.919,15s77.26,15.472,105.354,43.566c28.095,28.094,43.567,65.509,43.567,105.354
				s-15.473,77.26-43.567,105.354C240.223,298.324,202.078,312.847,163.919,312.843z M289.12,289.123
				c-0.713,0.713-1.385,1.457-2.031,2.218l-9.36-9.362c0.72-0.694,1.441-1.387,2.151-2.097c0.71-0.71,1.404-1.431,2.099-2.151
				l9.36,9.36C290.578,287.737,289.834,288.409,289.12,289.123z M417.51,417.513c-3.967,3.966-9.239,6.15-14.849,6.15
				c-5.608,0-10.882-2.185-14.848-6.15l-88.089-88.088c-3.966-3.966-6.15-9.239-6.15-14.848s2.185-10.882,6.151-14.849
				c3.966-3.966,9.238-6.15,14.848-6.15s10.882,2.185,14.848,6.15l88.089,88.088C425.698,396.003,425.698,409.325,417.51,417.513z"
				/>
			<path d="M244.657,81.988c-1.809-1.421-4.168-1.935-6.403-1.395l-105.771,25.613c-3.365,0.815-5.735,3.827-5.735,7.29v65.868
				c-6.37-4.848-14.311-7.734-22.915-7.734c-20.907,0-37.916,17.009-37.916,37.916c0,20.906,17.009,37.915,37.916,37.915
				c20.906,0,37.915-17.009,37.915-37.915v-66.569l90.771-21.981v38.681c-6.37-4.848-14.311-7.734-22.915-7.734
				c-20.907,0-37.916,17.009-37.916,37.916c0,20.907,17.009,37.916,37.916,37.916c20.906,0,37.915-17.009,37.915-37.916V87.882
				C247.519,85.583,246.464,83.41,244.657,81.988z M103.833,232.459c-12.636,0-22.916-10.28-22.916-22.915
				c0-12.636,10.28-22.916,22.916-22.916c12.635,0,22.915,10.28,22.915,22.916C126.748,222.179,116.468,232.459,103.833,232.459z
				 M209.604,212.772c-12.636,0-22.916-10.28-22.916-22.916c0-12.636,10.28-22.916,22.916-22.916s22.915,10.28,22.915,22.916
				C232.519,202.492,222.24,212.772,209.604,212.772z M232.519,105.561l-90.771,21.98v-8.145l90.771-21.98V105.561z"/>
		</g>
	</g>
</g>
<g>
</g>
<g>
</g>
<g>
</g>
<g>
</g>
<g>
</g>
<g>
</g>
<g>
</g>
<g>
</g>
<g>
</g>
<g>
</g>
<g>
</g>
<g>
</g>
<g>
</g>
<g>
</g>
<g>
</g>
</svg>
